<?xml version="1.0" encoding="utf-8"?>
<!-- Generator: Adobe Illustrator 28.0.0, SVG Export Plug-In . SVG Version: 6.00 Build 0)  -->
<svg version="1.1" id="Capa_1" xmlns="http://www.w3.org/2000/svg" xmlns:xlink="http://www.w3.org/1999/xlink" x="0px" y="0px"
	 viewBox="0 0 31.8 31.9" style="enable-background:new 0 0 31.8 31.9;" xml:space="preserve">
<style type="text/css">
	.st0{fill-rule:evenodd;clip-rule:evenodd;fill:#EFEAF9;stroke:#FFFFFF;stroke-width:0.5;stroke-miterlimit:10;}
</style>
<g>
	<path class="st0" d="M10.3,9.7L6.4,22h2.3l1.1-3.5h3.9l1.1,3.5h2.4l-4-12.3L10.3,9.7L10.3,9.7z M10.1,16.8l0.9-3
		c0.1-0.5,0.3-1,0.4-1.5c0.1-0.3,0.1-0.5,0.2-0.8h0c0,0.1,0.1,0.3,0.1,0.4c0.1,0.6,0.3,1.3,0.5,1.9l1,3H10.1L10.1,16.8z"/>
	<path class="st0" d="M25.4,17.2c0-1.9-0.9-4.3-3.8-4.3s-4.3,2.3-4.3,4.8c0,2.7,1.7,4.5,4.6,4.5c1.3,0,2.3-0.3,3.1-0.6l-0.3-1.5
		c-0.7,0.3-1.4,0.4-2.5,0.4c-1.4,0-2.7-0.7-2.7-2.3h5.9C25.4,18,25.4,17.6,25.4,17.2L25.4,17.2z M19.4,16.6c0.1-0.9,0.7-2.2,2.1-2.2
		c1.5,0,1.9,1.4,1.8,2.2H19.4z"/>
</g>
<path class="st0" d="M24.6,0.7c-5.8-0.6-11.7-0.6-17.4,0c-3.3,0.4-6,3-6.4,6.4c-0.7,5.9-0.7,11.8,0,17.7c0.4,3.4,3.1,6,6.4,6.4
	c5.8,0.6,11.7,0.6,17.4,0c3.3-0.4,6-3,6.4-6.4c0.7-5.9,0.7-11.8,0-17.7C30.7,3.7,28,1.1,24.6,0.7z M7.5,3.2c5.6-0.6,11.3-0.6,16.9,0
	c2.2,0.2,4,2,4.2,4.2c0.7,5.7,0.7,11.4,0,17.1c-0.3,2.2-2,3.9-4.2,4.2c-5.6,0.6-11.3,0.6-16.9,0c-2.2-0.2-4-2-4.2-4.2
	C2.6,18.8,2.6,13,3.2,7.4C3.5,5.2,5.3,3.4,7.5,3.2z"/>
</svg>
