<?xml version="1.0" encoding="UTF-8"?>
<svg id="Capa_1" data-name="Capa 1" xmlns="http://www.w3.org/2000/svg" viewBox="0 0 35.1 29.78">
  <defs>
    <style>
      .cls-1 {
        fill: #efeaf9;
        stroke-width: 0px;
      }
    </style>
  </defs>
  <path class="cls-1" d="m18.15,0c-.15-.01-.29,0-.44,0-.58.06-1.15.35-1.54.84-.79.98-.63,2.43.35,3.22l2.52,2.03H6.08c-1.26,0-2.29,1.03-2.29,2.29s1.03,2.29,2.29,2.29h5.68L.88,19.47c-1.01.82-1.17,2.33-.36,3.35.82,1.01,2.33,1.17,3.35.36l5.34-4.32c.43,6.12,6.06,10.92,12.9,10.92s12.98-5.17,12.98-11.65c0-4.11-2.39-7.71-5.94-9.77L19.39.5s0,0,0,0c-.37-.3-.8-.46-1.24-.49Zm-.28,1.52c.19-.02.39.03.56.17l9.8,7.88s.06.05.1.07c3.17,1.82,5.23,4.94,5.23,8.49,0,5.55-5.07,10.12-11.46,10.12s-11.46-4.57-11.46-10.12c0-.24.02-.5.04-.78.04-.42-.27-.79-.69-.83-.2-.02-.39.04-.55.17l-6.55,5.3c-.37.3-.9.25-1.2-.13-.3-.37-.25-.9.13-1.2l12.56-10.15c.33-.27.38-.75.11-1.07-.14-.18-.36-.28-.59-.28h-7.84c-.43,0-.76-.33-.76-.76s.33-.76.76-.76h15.13c.42,0,.76-.34.76-.76,0-.23-.1-.45-.28-.6l-4.21-3.39c-.34-.27-.39-.74-.12-1.07.13-.17.32-.26.51-.28Zm4.24,8.4c-4.57,0-8.4,3.18-8.4,7.26s3.83,7.26,8.4,7.26,8.4-3.18,8.4-7.26-3.83-7.26-8.4-7.26Zm0,1.53c3.87,0,6.87,2.63,6.87,5.73s-3.01,5.73-6.87,5.73-6.87-2.63-6.87-5.73,3.01-5.73,6.87-5.73Zm0,1.53c-2.53,0-4.58,1.71-4.58,3.82s2.05,3.82,4.58,3.82,4.58-1.71,4.58-3.82-2.05-3.82-4.58-3.82Zm0,1.53c1.66,0,3.05,1.05,3.05,2.29s-1.4,2.29-3.05,2.29-3.05-1.05-3.05-2.29,1.4-2.29,3.05-2.29Z"/>
</svg>