<?xml version="1.0" encoding="utf-8"?>
<!-- Generator: Adobe Illustrator 28.0.0, SVG Export Plug-In . SVG Version: 6.00 Build 0)  -->
<svg version="1.1" id="Capa_1" xmlns="http://www.w3.org/2000/svg" xmlns:xlink="http://www.w3.org/1999/xlink" x="0px" y="0px"
	 viewBox="0 0 48.2 38.5" style="enable-background:new 0 0 48.2 38.5;" xml:space="preserve">
<style type="text/css">
	.st0{fill:#56575A;}
	.st1{fill:#EFEFEF;}
</style>
<path class="st0" d="M10,0C7.3,0,5.2,2.4,5.3,5c0.1,2.5,0,5.8-0.8,8.4C3.7,16.1,2.3,17.8,0,18v2.5c2.3,0.2,3.7,1.9,4.5,4.6
	s0.9,5.9,0.8,8.4c-0.1,2.6,1.9,5,4.7,5h28.2c2.8,0,4.8-2.4,4.7-5c-0.1-2.5,0-5.8,0.8-8.4c0.8-2.7,2.2-4.4,4.5-4.6V18
	c-2.3-0.2-3.7-1.9-4.5-4.6S42.8,7.6,42.8,5c0.1-2.6-1.9-5-4.7-5H10z M32.7,23.7c0,3.6-2.7,5.8-7.1,5.8H18c-0.1,0-0.2,0-0.3-0.1
	c-0.1,0-0.2-0.1-0.3-0.2s-0.1-0.2-0.2-0.3s-0.1-0.2-0.1-0.3V9.8c0-0.1,0-0.2,0.1-0.3c0-0.1,0.1-0.2,0.2-0.3c0.1-0.1,0.2-0.1,0.3-0.2
	S17.9,9,18,9h7.5c3.7,0,6.1,2,6.1,5.1c0,2.2-1.6,4.1-3.7,4.5v0.1C30.8,19,32.7,21,32.7,23.7z M24.7,11.6h-4.3v6.1H24
	c2.8,0,4.4-1.1,4.4-3.2C28.4,12.7,27.1,11.6,24.7,11.6L24.7,11.6z M20.4,20.2v6.8h4.5c2.9,0,4.5-1.2,4.5-3.4s-1.6-3.4-4.7-3.4H20.4
	L20.4,20.2z"/>
<path class="st1" d="M10,0C7.3,0,5.2,2.4,5.3,5c0.1,2.5,0,5.8-0.8,8.4C3.7,16.1,2.3,17.8,0,18v2.5c2.3,0.2,3.7,1.9,4.5,4.6
	s0.9,5.9,0.8,8.4c-0.1,2.6,1.9,5,4.7,5h28.2c2.8,0,4.8-2.4,4.7-5c-0.1-2.5,0-5.8,0.8-8.4c0.8-2.7,2.2-4.4,4.5-4.6V18
	c-2.3-0.2-3.7-1.9-4.5-4.6S42.8,7.6,42.8,5c0.1-2.6-1.9-5-4.7-5H10z M32.7,23.7c0,3.6-2.7,5.8-7.1,5.8H18c-0.1,0-0.2,0-0.3-0.1
	c-0.1,0-0.2-0.1-0.3-0.2s-0.1-0.2-0.2-0.3s-0.1-0.2-0.1-0.3V9.8c0-0.1,0-0.2,0.1-0.3c0-0.1,0.1-0.2,0.2-0.3c0.1-0.1,0.2-0.1,0.3-0.2
	S17.9,9,18,9h7.5c3.7,0,6.1,2,6.1,5.1c0,2.2-1.6,4.1-3.7,4.5v0.1C30.8,19,32.7,21,32.7,23.7z M24.7,11.6h-4.3v6.1H24
	c2.8,0,4.4-1.1,4.4-3.2C28.4,12.7,27.1,11.6,24.7,11.6L24.7,11.6z M20.4,20.2v6.8h4.5c2.9,0,4.5-1.2,4.5-3.4s-1.6-3.4-4.7-3.4H20.4
	L20.4,20.2z"/>
</svg>
