<?xml version="1.0" encoding="UTF-8"?>
<svg id="Capa_1" data-name="Capa 1" xmlns="http://www.w3.org/2000/svg" viewBox="0 0 33.09 33.09">
  <defs>
    <style>
      .cls-1 {
        fill: #efeaf9;
        stroke-width: 0px;
      }
    </style>
  </defs>
  <path class="cls-1" d="m16.54,0C7.42,0,0,7.42,0,16.54s7.42,16.54,16.54,16.54,16.54-7.42,16.54-16.54S25.67,0,16.54,0Zm0,1.44c8.35,0,15.1,6.75,15.1,15.1s-6.75,15.1-15.1,15.1S1.44,24.89,1.44,16.54,8.19,1.44,16.54,1.44Zm-7.11,9.41c-.52,0-1.08.15-1.59.46-2.21,1.34-3.63,4.41-3.34,6.75.09.74.4,1.56.98,2.1.39.36,1.1.81,1.94.81.91,0,1.67-.35,2.36-.78.47-.3.85-.66,1.18-1.03.23.49.71.82,1.21.82.39,0,.76-.2,1.03-.56.08.34.32.56.74.56.31,0,.96-.31,1.57-.76l-.06.32c-.02.07-.02.14-.02.21.02.15.12.22.26.22.29,0,.72-.28.81-.72l.13-.62c.17-.77,1.3-1.93,1.62-1.93.04,0,.07.03.08.08.02.2-.36.84-.52,1.88-.03.18-.04.36-.02.53.06.46.33.77.83.77.43,0,1.36-.37,2.02-1.09.05.4.14.75.26.97.06.1.18.13.29.13.14,0,.34-.05.54-.17.5-.28,1.16-.91,1.79-1.82.08.01.15.01.24.01.25,0,.53-.09.79-.25-.1.32-.14.64-.1.94.09.73.72,1.29,1.36,1.29.38,0,.74-.2,1.02-.55.08.46.38.95,1.1,1.25.05.03.1.03.14.03.14,0,.23-.1.21-.21,0-.04-.04-.11-.11-.17-.17-.15-.36-.42-.41-.83-.02-.2-.01-.43.05-.71.16-.66.19-.84.18-.92-.02-.17-.14-.24-.28-.24-.29,0-.69.29-.79.7-.16.62-.6,1.04-.89,1.04-.36,0-.55-.39-.6-.8-.12-1.01.52-2.25,1.45-2.25.28,0,.57.11.61.39.05.43-.41.33-.38.52.02.18.34.24.55.24s.82-.14.73-.85c-.07-.56-.66-.83-1.34-.83-.8,0-1.49.41-1.95.97-.06.04-.13.1-.2.18-.15.18-.43.35-.8.35-.04,0-.14-.01-.14-.01.24-.46.4-.94.4-1.36,0-.67-.42-1.01-.88-1.01-.59,0-1.19.52-1.19,1.53,0,.6.24,1.09.66,1.36-.47.78-1.13,1.43-1.23,1.43-.06,0-.07-.06-.08-.11-.07-.27-.14-.78-.14-1.11,0-.57.11-1.15.32-1.76.03-.07.04-.14.04-.2,0-.17-.11-.25-.27-.25-.31,0-.77.35-.88.71-.11.35-.15.83-.15,1.41,0,.11,0,.22,0,.32-.57.75-1.27,1.02-1.49,1.02-.27,0-.33-.23-.3-.38.15-.71.37-1.53.57-2.07.09-.27.13-.5.12-.64-.03-.25-.21-.38-.45-.38-.56,0-1.49.59-2.09,1.39l.19-.86c.02-.08.02-.16.02-.21-.02-.17-.13-.24-.27-.24-.68,0-.81.35-.87.68-.02.08-.21,1.11-.38,1.94-.51.46-1.07.76-1.22.76-.19,0-.25-.15-.26-.26,0-.13.13-.73.17-.91.02-.08.02-.15.02-.21-.02-.15-.12-.22-.28-.22-.29,0-.69.28-.8.7-.16.62-.58,1.04-.88,1.04-.36,0-.56-.39-.61-.78-.11-.87.45-2.27,1.45-2.27.28,0,.57.1.6.38.06.45-.39.34-.37.53.02.18.34.24.53.24.22,0,.82-.14.73-.84-.07-.56-.65-.84-1.34-.84-1.61,0-2.7,1.59-2.59,2.85-.42.49-.83.78-1.57,1.16-.42.21-.89.34-1.34.34-1.34,0-1.99-1.23-2.12-2.3-.33-2.73,2.07-6.48,3.74-6.48.39,0,.74.34.8.87.1.82.08,1.41-.77,2.12-.09.08-.12.2-.07.28.07.11.3.12.76-.11.91-.46,1.23-1.16,1.13-1.98-.11-.91-.9-1.66-1.96-1.66Zm13.74,4.59c.15,0,.35.22.35.73,0,.27-.06.53-.15.8-.25-.27-.45-.67-.45-1.06,0-.21.07-.46.25-.46Z"/>
</svg>