<?xml version="1.0" encoding="utf-8"?>
<!-- Generator: Adobe Illustrator 28.0.0, SVG Export Plug-In . SVG Version: 6.00 Build 0)  -->
<svg version="1.1" id="Capa_1" xmlns="http://www.w3.org/2000/svg" xmlns:xlink="http://www.w3.org/1999/xlink" x="0px" y="0px"
	 viewBox="0 0 36.5 36.6" style="enable-background:new 0 0 36.5 36.6;" xml:space="preserve">
<style type="text/css">
	.st0{fill:#EFEFEF;}
</style>
<path class="st0" d="M18.3,0C8.2,0,0,8.2,0,18.3s8.2,18.3,18.3,18.3s18.3-8.2,18.3-18.3S28.4,0,18.3,0z M13.7,25.9h-3V10.7h3V25.9z
	 M25.9,25.9h-9.1v-3h9.1C25.9,22.9,25.9,25.9,25.9,25.9z M25.9,19.8h-9.1v-3h9.1C25.9,16.8,25.9,19.8,25.9,19.8z M25.9,13.7h-9.1
	v-3.1h9.1C25.9,10.7,25.9,13.7,25.9,13.7z"/>
</svg>
