<?xml version="1.0" encoding="utf-8"?>
<!-- Generator: Adobe Illustrator 28.0.0, SVG Export Plug-In . SVG Version: 6.00 Build 0)  -->
<svg version="1.1" id="Capa_1" xmlns="http://www.w3.org/2000/svg" xmlns:xlink="http://www.w3.org/1999/xlink" x="0px" y="0px"
	 viewBox="0 0 21.1 31.5" style="enable-background:new 0 0 21.1 31.5;" xml:space="preserve">
<style type="text/css">
	.st0{fill:#EFEFEF;stroke:#6B2FDD;stroke-width:0.5;stroke-miterlimit:10;}
</style>
<path class="st0" d="M0.2,26c0-2.9,2.3-5.2,5.2-5.2h5.2V26c0,2.9-2.3,5.2-5.2,5.2S0.2,28.9,0.2,26z"/>
<path class="st0" d="M10.6,0.2v10.3h5.2c2.9,0,5.2-2.3,5.2-5.2s-2.3-5.2-5.2-5.2H10.6z"/>
<path class="st0" d="M15.7,20.9c2.8,0,5.2-2.3,5.2-5.2s-2.3-5.2-5.2-5.2s-5.2,2.3-5.2,5.2S12.8,20.9,15.7,20.9z"/>
<path class="st0" d="M0.2,5.4c0,2.9,2.3,5.2,5.2,5.2h5.2V0.2H5.4C2.6,0.2,0.2,2.6,0.2,5.4z"/>
<path class="st0" d="M0.2,15.7c0,2.9,2.3,5.2,5.2,5.2h5.2V10.6H5.4C2.6,10.6,0.2,12.9,0.2,15.7z"/>
</svg>
