<?xml version="1.0" encoding="UTF-8"?>
<svg id="Capa_1" data-name="Capa 1" xmlns="http://www.w3.org/2000/svg" viewBox="0 0 28.83 32.29">
  <defs>
    <style>
      .cls-1 {
        fill: #efeaf9;
        stroke-width: 0px;
      }
    </style>
  </defs>
  <path class="cls-1" d="m.57,0C.21.07-.04.4,0,.77l2.48,27.68c.03.28.23.52.5.59l11.23,3.22c.13.04.27.04.39,0l11.23-3.22c.27-.08.47-.31.5-.59L28.82.77c.02-.2-.05-.39-.18-.54-.13-.15-.32-.23-.52-.23H.57Zm.9,1.4h25.88l-2.35,26.43-10.59,3-10.59-3L1.47,1.4Zm4.19,4.25c-.36.07-.61.4-.57.77l.94,10.37c.02.36.32.65.68.66h11.21l-.31,3.22-3.18.68-3.22-.68-.11-1.14c-.02-.37-.33-.66-.7-.66h-3.42c-.2,0-.39.08-.52.23-.13.15-.2.34-.18.54l.39,4.3c.02.28.21.53.48.61l6.97,2.13.09.02c.13.04.27.04.39,0l7.06-2.15c.28-.08.48-.32.5-.61l.92-10.55c.02-.19-.04-.39-.17-.53s-.31-.23-.51-.24h-11.95l-.18-2.17h12.44c.36,0,.67-.27.7-.64l.31-3.4c.02-.2-.05-.39-.18-.54-.13-.15-.32-.23-.52-.23H5.79s-.09,0-.13,0Zm.9,1.4h15.7l-.18,2h-12.57c-.2,0-.39.08-.52.23-.13.15-.2.34-.18.54l.33,3.58c.03.35.33.63.68.64h11.82l-.83,9.32-6.4,1.93-6.4-1.93-.26-3.07h2.02l.09,1.03c.02.31.24.57.55.64l3.9.81c.09.02.19.02.29,0l3.84-.81c.3-.07.53-.33.55-.64l.42-4.52c.01-.19-.06-.38-.19-.52-.13-.14-.32-.22-.51-.22H7.35l-.79-8.99Z"/>
</svg>