<?xml version="1.0" encoding="UTF-8"?>
<svg id="Capa_1" data-name="Capa 1" xmlns="http://www.w3.org/2000/svg" viewBox="0 0 32.67 32.67">
  <defs>
    <style>
      .cls-1 {
        fill: #efeaf9;
        stroke-width: 0px;
      }
    </style>
  </defs>
  <path class="cls-1" d="m2.08,0C.94,0,0,.94,0,2.08v28.52c0,1.14.94,2.08,2.08,2.08h28.52c1.14,0,2.08-.94,2.08-2.08V2.08c0-1.14-.94-2.08-2.08-2.08H2.08Zm0,1.56h28.52c.29,0,.52.23.52.52v28.52c0,.29-.23.52-.52.52H2.08c-.29,0-.52-.23-.52-.52V2.08c0-.29.23-.52.52-.52Zm12.7,13.22v9.78c0,1.5-.57,1.89-1.56,1.89s-1.75-.64-2.22-1.48l-2.44,1.48c.71,1.5,2.44,3.11,4.85,3.11,2.66,0,4.48-1.42,4.48-4.52v-10.25h-3.11Zm9.69,0c-2.65,0-4.35,1.7-4.35,3.92,0,2.42,1.43,3.56,3.57,4.47l.74.32c1.35.59,2.02.95,2.02,1.97,0,.85-.64,1.46-1.87,1.46-1.46,0-2.16-.99-2.79-2.03l-2.33,1.56c.87,1.72,2.44,3.11,5.19,3.11s4.92-1.46,4.92-4.14c0-2.48-1.42-3.58-3.95-4.66l-.74-.32c-1.27-.55-1.83-.91-1.83-1.8,0-.72.55-1.27,1.42-1.27s1.4.36,1.91,1.27l2.31-1.48c-.98-1.72-2.33-2.38-4.22-2.38Z"/>
</svg>