<?xml version="1.0" encoding="UTF-8"?>
<svg id="Capa_1" data-name="Capa 1" xmlns="http://www.w3.org/2000/svg" viewBox="0 0 32.68 32.68">
  <defs>
    <style>
      .cls-1 {
        fill: #efeaf9;
        stroke-width: 0px;
      }
    </style>
  </defs>
  <path class="cls-1" d="m1.56,0C.71,0,0,.71,0,1.56v29.57c0,.85.71,1.56,1.56,1.56h29.57c.85,0,1.56-.71,1.56-1.56V1.56c0-.85-.71-1.56-1.56-1.56H1.56Zm0,1.56h29.57v29.57H1.56V1.56Zm9.79,6.22c-1.12,0-2.02.12-2.79.32v16.79s1.92,0,1.92,0v-7.14c.27.02.52.02.85.02,1.49,0,3.06-.62,3.96-1.87.65-.85,1.02-1.89,1.02-3.44s-.42-2.69-1.22-3.49c-.87-.85-2.19-1.22-3.73-1.22Zm.3,1.28c2.14,0,2.84,1.54,2.84,3.26,0,2.37-1.27,3.61-3.14,3.61-.32,0-.55-.02-.77-.05v-6.7c.25-.08.62-.12,1.07-.12Zm9.91,3.39c-1.94,0-3.44,1.38-3.44,3.35,0,1.37.88,2.43,2.5,3.45,1.27.8,1.6,1.45,1.6,2.38,0,1.07-.72,1.75-1.83,1.75-.8,0-1.58-.35-2.02-.62l-.49,1.45c.54.42,1.55.7,2.45.7,2.07,0,3.77-1.17,3.77-3.6,0-1.67-1.14-2.8-2.58-3.7-1.24-.8-1.55-1.27-1.55-2.07s.54-1.55,1.6-1.55c.67,0,1.19.22,1.68.55l.52-1.45c-.52-.32-1.24-.62-2.22-.62Z"/>
</svg>