<?xml version="1.0" encoding="utf-8"?>
<!-- Generator: Adobe Illustrator 28.0.0, SVG Export Plug-In . SVG Version: 6.00 Build 0)  -->
<svg version="1.1" id="Capa_1" xmlns="http://www.w3.org/2000/svg" xmlns:xlink="http://www.w3.org/1999/xlink" x="0px" y="0px"
	 viewBox="0 0 49 39" style="enable-background:new 0 0 49 39;" xml:space="preserve">
<style type="text/css">
	.st0{fill:#EFEFEF;}
</style>
<path class="st0" d="M9,20.4c0,5.9,3.5,11.1,8.5,13.5l-7.2-19.6C9.5,16.1,9,18.2,9,20.4z M34.1,19.6c0-1.9-0.7-3.1-1.2-4.1
	c-0.8-1.2-1.5-2.3-1.5-3.5c0-1.4,1-2.7,2.5-2.7c0.1,0,0.1,0,0.2,0C31.5,6.9,27.9,5.4,24,5.4c-5.2,0-9.9,2.7-12.5,6.8
	c0.4,0,0.7,0,1,0c1.6,0,4-0.2,4-0.2c0.8,0,0.9,1.1,0.1,1.2c0,0-0.8,0.1-1.7,0.1l5.5,16.3l3.3-9.9l-2.3-6.4c-0.8,0-1.6-0.1-1.6-0.1
	c-0.8,0-0.7-1.3,0.1-1.2c0,0,2.5,0.2,4,0.2c1.6,0,4-0.2,4-0.2c0.8,0,0.9,1.1,0.1,1.2c0,0-0.8,0.1-1.7,0.1l5.4,16.1l1.5-5
	C33.8,22.5,34.1,20.9,34.1,19.6z M24.3,21.7l-4.5,13.1c1.3,0.4,2.8,0.6,4.2,0.6c1.7,0,3.4-0.3,5-0.9c0-0.1-0.1-0.1-0.1-0.2
	L24.3,21.7z M37.2,13.2c0.1,0.5,0.1,1,0.1,1.5c0,1.5-0.3,3.2-1.1,5.4l-4.6,13.3c4.5-2.6,7.5-7.4,7.5-13C39,17.8,38.4,15.3,37.2,13.2
	z"/>
<g>
	<path class="st0" d="M6.5,20.4c0,9.6,7.9,17.5,17.5,17.5c9.7,0,17.5-7.9,17.5-17.5S33.7,2.9,24,2.9S6.5,10.7,6.5,20.4z M7.3,20.4
		c0-9.2,7.5-16.7,16.7-16.7s16.7,7.5,16.7,16.7S33.2,37.1,24,37.1S7.3,29.6,7.3,20.4z"/>
</g>
</svg>
